<?xml version="1.0" encoding="UTF-8"?>
<svg width="247" height="90" xmlns="http://www.w3.org/2000/svg" viewBox="0 0 246.57 89.54"><defs><style>.fill-brand{fill:#005FB2;}.fill-brand-light-blue{fill:#0095FF;}.fill-brand-light-green{fill:#A3D957;}.fill-brand-dark-green{fill:#008C52;}.fill-brand-middle-green{fill:#5ebc5e;}</style></defs><g id="Layer_1-2"><g><polygon class="fill-brand-dark-green" points="1.48 61.93 0 64.58 44.22 52.05 45.71 49.39 1.48 61.93"/><polygon class="fill-brand-middle-green" points="5.16 55.35 3.67 58 47.89 45.47 49.38 42.82 5.16 55.35"/><polygon class="fill-brand-light-green" points="8.83 48.78 7.34 51.43 51.56 38.9 53.05 36.24 8.83 48.78"/><polygon class="fill-brand-dark-green" points="66.36 0 55.1 44.56 56.66 47.18 67.92 2.61 66.36 0"/><polygon class="fill-brand-middle-green" points="70.22 6.47 58.96 51.03 60.52 53.64 71.78 9.08 70.22 6.47"/><polygon class="fill-brand-light-green" points="74.08 12.93 62.82 57.5 64.38 60.11 75.64 15.55 74.08 12.93"/><polygon class="fill-brand-dark-green" points="55.9 57.25 52.86 57.29 85.83 89.32 88.87 89.28 55.9 57.25"/><polygon class="fill-brand-middle-green" points="45.33 57.4 78.29 89.43 81.34 89.39 48.37 57.35 45.33 57.4"/><polygon class="fill-brand-light-green" points="37.8 57.51 70.51 89.29 70.77 89.54 73.81 89.49 40.84 57.46 37.8 57.51"/><g><path class="fill-brand-light-blue" d="M101.06,45.18h5.12v8.49c-1.17,.84-2.52,1.48-4.04,1.93-1.52,.45-3.05,.67-4.57,.67-2.15,0-4.08-.45-5.8-1.36-1.72-.91-3.06-2.17-4.04-3.79-.98-1.62-1.46-3.46-1.46-5.51s.49-3.88,1.46-5.51c.98-1.62,2.33-2.88,4.07-3.79,1.74-.91,3.7-1.36,5.89-1.36,1.91,0,3.63,.32,5.15,.97,1.52,.64,2.79,1.57,3.81,2.78l-3.69,3.34c-1.39-1.52-3.04-2.28-4.98-2.28-1.76,0-3.17,.53-4.25,1.6-1.07,1.06-1.61,2.48-1.61,4.26,0,1.13,.24,2.14,.73,3.03,.49,.89,1.17,1.58,2.05,2.08,.88,.5,1.88,.75,3.02,.75s2.16-.22,3.13-.67v-5.62Z"/><path class="fill-brand-light-blue" d="M119.13,50.43h-3.16v5.45h-5.8v-20.5h9.37c1.85,0,3.46,.31,4.83,.92,1.37,.62,2.42,1.49,3.16,2.64,.74,1.14,1.11,2.48,1.11,4.03s-.35,2.78-1.04,3.88c-.69,1.1-1.68,1.97-2.97,2.59l4.42,6.44h-6.21l-3.72-5.45Zm2.75-9.69c-.61-.53-1.5-.79-2.69-.79h-3.22v6h3.22c1.19,0,2.09-.26,2.69-.78s.91-1.25,.91-2.21-.3-1.7-.91-2.23Z"/><path class="fill-brand-light-blue" d="M132.13,35.37h5.8v20.5h-5.8v-20.5Z"/><path class="fill-brand-light-blue" d="M142.35,35.37h9.69c2.25,0,4.24,.42,5.97,1.26,1.74,.84,3.08,2.03,4.04,3.57,.96,1.54,1.43,3.35,1.43,5.42s-.48,3.88-1.43,5.42c-.96,1.54-2.3,2.73-4.04,3.57-1.74,.84-3.73,1.26-5.97,1.26h-9.69v-20.5Zm9.46,15.87c1.76,0,3.17-.5,4.23-1.49,1.06-1,1.6-2.37,1.6-4.13s-.53-3.13-1.6-4.13c-1.06-1-2.47-1.49-4.23-1.49h-3.66v11.24h3.66Z"/><path class="fill-brand-light-blue" d="M198.28,35.37l-6.65,20.5h-6.21l-3.92-12.47-4.1,12.47h-6.21l-6.65-20.5h5.97l4.13,13.09,4.33-13.09h5.33l4.13,13.21,4.3-13.21h5.54Z"/><path class="fill-brand-light-blue" d="M200.65,35.37h5.8v20.5h-5.8v-20.5Z"/><path class="fill-brand-light-blue" d="M213.24,55.67c-1.56-.41-2.83-.96-3.81-1.64l1.9-4.27c.92,.61,1.98,1.09,3.19,1.46s2.4,.56,3.57,.56c2.23,0,3.34-.56,3.34-1.67,0-.59-.32-1.02-.95-1.3s-1.65-.58-3.06-.89c-1.54-.33-2.83-.69-3.87-1.07s-1.92-.99-2.66-1.83c-.74-.84-1.11-1.97-1.11-3.4,0-1.25,.34-2.38,1.02-3.38s1.7-1.8,3.06-2.39c1.36-.59,3.02-.88,4.99-.88,1.35,0,2.67,.15,3.98,.45,1.31,.3,2.46,.75,3.46,1.33l-1.79,4.3c-1.95-1.05-3.85-1.58-5.68-1.58-1.15,0-1.99,.17-2.52,.51-.53,.34-.79,.79-.79,1.33s.31,.96,.94,1.23c.62,.27,1.63,.56,3.02,.85,1.56,.33,2.86,.69,3.88,1.07,1.02,.38,1.91,.99,2.66,1.82s1.13,1.96,1.13,3.38c0,1.23-.34,2.34-1.02,3.34-.68,1-1.71,1.79-3.07,2.39-1.37,.59-3.03,.89-4.98,.89-1.66,0-3.27-.2-4.83-.61Z"/><path class="fill-brand-light-blue" d="M246.57,51.39v4.48h-16.46v-20.5h16.08v4.48h-10.34v3.46h9.11v4.33h-9.11v3.75h10.72Z"/></g><g><path class="fill-brand" d="M110.76,68.71v1.54h-5.58v-7.04h5.45v1.54h-3.5v1.19h3.09v1.49h-3.09v1.29h3.63Z"/><path class="fill-brand" d="M119.65,63.22v7.04h-1.62l-3.07-3.75v3.75h-1.93v-7.04h1.62l3.07,3.75v-3.75h1.93Z"/><path class="fill-brand" d="M127.8,68.71v1.54h-5.58v-7.04h5.45v1.54h-3.5v1.19h3.09v1.49h-3.09v1.29h3.63Z"/><path class="fill-brand" d="M133.12,68.38h-1.07v1.87h-1.96v-7.04h3.18c.63,0,1.17,.11,1.64,.32,.46,.21,.82,.51,1.07,.9s.38,.85,.38,1.38-.12,.95-.35,1.33-.57,.67-1.01,.89l1.5,2.21h-2.1l-1.26-1.87Zm.93-3.33c-.21-.18-.51-.27-.91-.27h-1.09v2.06h1.09c.4,0,.71-.09,.91-.27,.2-.18,.31-.43,.31-.76s-.1-.58-.31-.76Z"/><path class="fill-brand" d="M143.28,66.58h1.74v2.91c-.4,.29-.85,.51-1.37,.66-.52,.15-1.03,.23-1.55,.23-.73,0-1.38-.16-1.96-.47-.58-.31-1.04-.75-1.37-1.3-.33-.56-.5-1.19-.5-1.89s.16-1.33,.5-1.89c.33-.56,.79-.99,1.38-1.3,.59-.31,1.25-.47,1.99-.47,.65,0,1.23,.11,1.75,.33,.52,.22,.95,.54,1.29,.95l-1.25,1.15c-.47-.52-1.03-.78-1.69-.78-.6,0-1.08,.18-1.44,.55-.36,.37-.55,.85-.55,1.46,0,.39,.08,.74,.25,1.04s.4,.54,.7,.71c.3,.17,.64,.26,1.02,.26s.73-.08,1.06-.23v-1.93Z"/><path class="fill-brand" d="M151.17,67.73v2.52h-1.96v-2.55l-2.65-4.48h2.07l1.65,2.79,1.65-2.79h1.91l-2.66,4.51Z"/><path class="fill-brand" d="M160.4,70.18c-.53-.14-.96-.33-1.29-.56l.65-1.47c.31,.21,.67,.37,1.08,.5,.41,.13,.81,.19,1.21,.19,.75,0,1.13-.19,1.13-.57,0-.2-.11-.35-.32-.45-.21-.1-.56-.2-1.04-.31-.52-.11-.96-.24-1.31-.37s-.65-.34-.9-.63c-.25-.29-.38-.68-.38-1.17,0-.43,.12-.82,.35-1.16,.23-.35,.58-.62,1.04-.82,.46-.2,1.02-.3,1.69-.3,.46,0,.91,.05,1.35,.16s.83,.26,1.17,.46l-.6,1.48c-.66-.36-1.3-.54-1.93-.54-.39,0-.68,.06-.85,.18-.18,.12-.27,.27-.27,.46s.11,.33,.32,.42,.55,.19,1.02,.29c.53,.11,.97,.24,1.31,.37,.35,.13,.65,.34,.9,.62,.26,.29,.38,.67,.38,1.16,0,.42-.12,.8-.35,1.15-.23,.34-.58,.61-1.04,.82-.46,.2-1.03,.31-1.69,.31-.56,0-1.11-.07-1.64-.21Z"/><path class="fill-brand" d="M168.73,69.92c-.59-.31-1.05-.75-1.38-1.31s-.5-1.18-.5-1.88,.17-1.32,.5-1.88,.79-.99,1.38-1.31c.59-.31,1.25-.47,1.98-.47s1.39,.16,1.98,.47c.59,.31,1.05,.75,1.38,1.31,.33,.56,.5,1.18,.5,1.88s-.17,1.32-.5,1.88c-.33,.56-.79,.99-1.38,1.31s-1.25,.47-1.98,.47-1.39-.16-1.98-.47Zm2.93-1.43c.28-.17,.51-.4,.68-.71,.16-.31,.25-.66,.25-1.05s-.08-.75-.25-1.05c-.17-.31-.39-.54-.68-.71-.28-.17-.6-.25-.95-.25s-.67,.08-.95,.25c-.28,.17-.51,.4-.68,.71s-.25,.66-.25,1.05,.08,.75,.25,1.05,.39,.54,.68,.71c.28,.17,.6,.25,.95,.25s.67-.08,.95-.25Z"/><path class="fill-brand" d="M176.8,63.22h1.96v5.46h3.31v1.58h-5.28v-7.04Z"/><path class="fill-brand" d="M184.77,69.54c-.57-.57-.86-1.38-.86-2.42v-3.9h1.96v3.84c0,1.13,.44,1.69,1.32,1.69s1.31-.56,1.31-1.69v-3.84h1.93v3.9c0,1.05-.29,1.85-.86,2.42-.57,.57-1.37,.85-2.41,.85s-1.83-.28-2.41-.85Z"/><path class="fill-brand" d="M194.33,64.79h-2.13v-1.58h6.22v1.58h-2.12v5.46h-1.96v-5.46Z"/><path class="fill-brand" d="M200.35,63.22h1.96v7.04h-1.96v-7.04Z"/><path class="fill-brand" d="M206.42,69.92c-.59-.31-1.05-.75-1.38-1.31-.33-.56-.5-1.18-.5-1.88s.17-1.32,.5-1.88c.33-.56,.79-.99,1.38-1.31s1.25-.47,1.98-.47,1.39,.16,1.98,.47c.59,.31,1.05,.75,1.38,1.31s.5,1.18,.5,1.88-.17,1.32-.5,1.88-.79,.99-1.38,1.31-1.25,.47-1.98,.47-1.39-.16-1.98-.47Zm2.93-1.43c.28-.17,.51-.4,.68-.71,.16-.31,.25-.66,.25-1.05s-.08-.75-.25-1.05c-.17-.31-.39-.54-.68-.71-.28-.17-.6-.25-.95-.25s-.67,.08-.95,.25c-.28,.17-.51,.4-.68,.71s-.25,.66-.25,1.05,.08,.75,.25,1.05,.39,.54,.68,.71c.28,.17,.6,.25,.95,.25s.67-.08,.95-.25Z"/><path class="fill-brand" d="M221.1,63.22v7.04h-1.62l-3.07-3.75v3.75h-1.93v-7.04h1.62l3.07,3.75v-3.75h1.93Z"/><path class="fill-brand" d="M224.48,70.18c-.53-.14-.96-.33-1.29-.56l.65-1.47c.31,.21,.67,.37,1.08,.5,.41,.13,.81,.19,1.21,.19,.75,0,1.13-.19,1.13-.57,0-.2-.11-.35-.32-.45-.21-.1-.56-.2-1.04-.31-.52-.11-.96-.24-1.31-.37s-.65-.34-.9-.63c-.25-.29-.38-.68-.38-1.17,0-.43,.12-.82,.35-1.16,.23-.35,.58-.62,1.04-.82,.46-.2,1.02-.3,1.69-.3,.46,0,.91,.05,1.35,.16s.83,.26,1.17,.46l-.6,1.48c-.66-.36-1.3-.54-1.93-.54-.39,0-.68,.06-.85,.18-.18,.12-.27,.27-.27,.46s.11,.33,.32,.42,.55,.19,1.02,.29c.53,.11,.97,.24,1.31,.37,.35,.13,.65,.34,.9,.62,.26,.29,.38,.67,.38,1.16,0,.42-.12,.8-.35,1.15-.23,.34-.58,.61-1.04,.82-.46,.2-1.03,.31-1.69,.31-.56,0-1.11-.07-1.64-.21Z"/></g></g></g></svg>